<mxfile host="app.diagrams.net" modified="2023-07-10T18:04:29.785Z" agent="Mozilla/5.0 (Windows NT 10.0; Win64; x64; rv:109.0) Gecko/20100101 Firefox/115.0" version="21.6.1" etag="2_2WPPadcwRiH6MjfYgK" type="github">
  <diagram name="Sida-1" id="ahdMgFU54FZAEoDfdOe-">
    <mxGraphModel>
      <root>
        <mxCell id="0" />
        <mxCell id="1" parent="0" />
      </root>
    </mxGraphModel>
  </diagram>
</mxfile>
